<svg xmlns="http://www.w3.org/2000/svg" xml:space="preserve" width="512" height="512" viewBox="0 0 60 60"><path fill="#2a2a49" d="M53 9v39a5 5 0 0 1-5 5H6a5 5 0 0 1-5-5V9l2-2h47z" data-original="#2a2a49"/><path fill="#447" d="M53 6v3H1V6a5 5 0 0 1 5-5h42a5 5 0 0 1 5 5" data-original="#444477"/><circle cx="41" cy="41" r="11" fill="#2074ef" data-original="#2074ef"/><path fill="#c7dfe5" d="M58.92 39.46a1.05 1.05 0 0 0-.66-.87l-2.89-1.16a15 15 0 0 0-1.69-4.07l1.23-2.87a1.03 1.03 0 0 0-.15-1.08 18 18 0 0 0-2.18-2.17 1.03 1.03 0 0 0-1.08-.15l-2.87 1.23a14.5 14.5 0 0 0-4.07-1.69l-1.15-2.9a1.07 1.07 0 0 0-.87-.66 16.7 16.7 0 0 0-3.08 0 1.07 1.07 0 0 0-.87.66l-1.15 2.9a14.5 14.5 0 0 0-4.07 1.69l-2.87-1.23a1.03 1.03 0 0 0-1.08.15 18.6 18.6 0 0 0-2.18 2.17 1.03 1.03 0 0 0-.15 1.08l1.23 2.87a15 15 0 0 0-1.69 4.07l-2.89 1.16a1.05 1.05 0 0 0-.66.87 15 15 0 0 0 0 3.08 1.05 1.05 0 0 0 .66.87l2.89 1.16a15 15 0 0 0 1.69 4.07l-1.23 2.87a1.03 1.03 0 0 0 .15 1.08 17 17 0 0 0 2.18 2.17 1.03 1.03 0 0 0 1.08.15l2.87-1.23a14.5 14.5 0 0 0 4.07 1.69l1.15 2.9a1.07 1.07 0 0 0 .87.66 16.7 16.7 0 0 0 3.08 0 1.07 1.07 0 0 0 .87-.66l1.15-2.9a14.5 14.5 0 0 0 4.07-1.69l2.87 1.23a1.03 1.03 0 0 0 1.08-.15 18 18 0 0 0 2.18-2.17 1.03 1.03 0 0 0 .15-1.08l-1.23-2.87a15 15 0 0 0 1.69-4.07l2.89-1.16a1.05 1.05 0 0 0 .66-.87 14.4 14.4 0 0 0 0-3.08M41 52a11 11 0 1 1 11-11 10.994 10.994 0 0 1-11 11" data-original="#c7dfe5"/><path fill="#fff" d="m45.3 42.358-4.607 3.318A1.7 1.7 0 0 1 38 44.318v-6.636a1.7 1.7 0 0 1 2.694-1.358l4.606 3.318a1.67 1.67 0 0 1 0 2.716" data-original="#ffffff"/><path fill="#a2c6cc" d="M41 53a12 12 0 1 1 12-12 12.013 12.013 0 0 1-12 12m0-22a10 10 0 1 0 10 10 10.01 10.01 0 0 0-10-10" data-original="#a2c6cc"/><path fill="#ff4d4d" d="M7 6H6a1 1 0 0 1 0-2h1a1 1 0 0 1 0 2" data-original="#ff4d4d"/><path fill="#f7bb26" d="M12 6h-1a1 1 0 0 1 0-2h1a1 1 0 0 1 0 2" data-original="#f7bb26"/><path fill="#25e572" d="M17 6h-1a1 1 0 0 1 0-2h1a1 1 0 0 1 0 2" data-original="#25e572"/><path fill="#2a2a49" d="M43 6H27a1 1 0 0 1 0-2h16a1 1 0 0 1 0 2" data-original="#2a2a49"/><path fill="#ff4d4d" d="M7 15H6a1 1 0 0 1 0-2h1a1 1 0 0 1 0 2" data-original="#ff4d4d"/><path fill="#f7bb26" d="M35 15H11a1 1 0 0 1 0-2h24a1 1 0 0 1 0 2" data-original="#f7bb26"/><path fill="#ff4d4d" d="M7 27H6a1 1 0 0 1 0-2h1a1 1 0 0 1 0 2" data-original="#ff4d4d"/><path fill="#f7bb26" d="M24 27H11a1 1 0 0 1 0-2h13a1 1 0 0 1 0 2" data-original="#f7bb26"/><path fill="#ff4d4d" d="M7 39H6a1 1 0 0 1 0-2h1a1 1 0 0 1 0 2" data-original="#ff4d4d"/><path fill="#f7bb26" d="M19 39h-8a1 1 0 0 1 0-2h8a1 1 0 0 1 0 2" data-original="#f7bb26"/><path fill="#ff4d4d" d="M9 19H8a1 1 0 0 1 0-2h1a1 1 0 0 1 0 2" data-original="#ff4d4d"/><path fill="#fff" d="M31 19h-9a1 1 0 0 1 0-2h9a1 1 0 0 1 0 2" data-original="#ffffff"/><path fill="#2074ef" d="M18 19h-5a1 1 0 0 1 0-2h5a1 1 0 0 1 0 2" data-original="#2074ef"/><path fill="#ff4d4d" d="M9 23H8a1 1 0 0 1 0-2h1a1 1 0 0 1 0 2" data-original="#ff4d4d"/><path fill="#fff" d="M35 23H22a1 1 0 0 1 0-2h13a1 1 0 0 1 0 2" data-original="#ffffff"/><path fill="#2074ef" d="M18 23h-5a1 1 0 0 1 0-2h5a1 1 0 0 1 0 2" data-original="#2074ef"/><path fill="#ff4d4d" d="M9 31H8a1 1 0 0 1 0-2h1a1 1 0 0 1 0 2" data-original="#ff4d4d"/><path fill="#fff" d="M23 30.986h-.03l-1.043-.031a1 1 0 0 1-.97-1.03 1.03 1.03 0 0 1 1.03-.97l1.043.031a1 1 0 0 1-.029 2z" data-original="#ffffff"/><path fill="#2074ef" d="M18 31h-5a1 1 0 0 1 0-2h5a1 1 0 0 1 0 2" data-original="#2074ef"/><path fill="#ff4d4d" d="M9 35H8a1 1 0 0 1 0-2h1a1 1 0 0 1 0 2" data-original="#ff4d4d"/><path fill="#fff" d="M24 35.031h-.016l-2-.031a1 1 0 0 1 .032-2l2 .031a1 1 0 0 1-.016 2" data-original="#ffffff"/><path fill="#2074ef" d="M18 35h-5a1 1 0 0 1 0-2h5a1 1 0 0 1 0 2" data-original="#2074ef"/><path fill="#fff" d="M48 15h-9a1 1 0 0 1 0-2h9a1 1 0 0 1 0 2" data-original="#ffffff"/><path fill="#ff4d4d" d="M48 19H35a1 1 0 0 1 0-2h13a1 1 0 0 1 0 2" data-original="#ff4d4d"/></svg>