<svg xmlns="http://www.w3.org/2000/svg" xml:space="preserve" width="512" height="512" viewBox="0 0 60 60"><rect width="58" height="58" x="1" y="1" fill="#547580" data-original="#547580" rx="5"/><path fill="#4482c3" d="M59 6v7H1V6a5 5 0 0 1 5-5h48a5 5 0 0 1 5 5" data-original="#4482c3"/><circle cx="7" cy="7" r="2" fill="#f3d55b" data-original="#f3d55b"/><circle cx="15" cy="7" r="2" fill="#ff5364" data-original="#ff5364"/><circle cx="23" cy="7" r="2" fill="#65ddb9" data-original="#65ddb9"/><path fill="#fff" d="M53 9a2 2 0 0 0 0-4H43a2 2 0 0 0 0 4z" data-original="#ffffff"/><path fill="#90bae1" d="M29 43H7a1 1 0 0 1 0-2h22a1 1 0 0 1 0 2m-16 5H7a1 1 0 0 1 0-2h6a1 1 0 0 1 0 2m6 5H7a1 1 0 0 1 0-2h12a1 1 0 0 1 0 2m21-10h-7a1 1 0 0 1 0-2h7a1 1 0 0 1 0 2m13 0h-9a1 1 0 0 1 0-2h9a1 1 0 0 1 0 2m-33 5h-3a1 1 0 0 1 0-2h3a1 1 0 0 1 0 2m16 0H24a1 1 0 0 1 0-2h12a1 1 0 0 1 0 2m17 0H40a1 1 0 0 1 0-2h13a1 1 0 0 1 0 2m-11 5H23a1 1 0 0 1 0-2h19a1 1 0 0 1 0 2m11 0h-7a1 1 0 0 1 0-2h7a1 1 0 0 1 0 2" data-original="#90bae1"/><path fill="#f0c419" d="M8 34a1 1 0 0 1-.516-1.857L16.056 27l-8.571-5.143a1 1 0 0 1 1.03-1.714l10 6a1 1 0 0 1 0 1.714l-10 6A1 1 0 0 1 8 34m26 0H22a1 1 0 0 1 0-2h12a1 1 0 0 1 0 2" data-original="#f0c419"/></svg>