<svg xmlns="http://www.w3.org/2000/svg" xml:space="preserve" width="512" height="512"><circle cx="256" cy="256" r="256" fill="#f8f6f6" data-original="#f8f6f6"/><path fill="#ebebeb" d="M512 256c0 141.381-114.619 256-256 256-35.435 0-69.192-7.2-99.878-20.221 24.959 8.127 51.608 12.516 79.276 12.516 141.381 0 256-114.619 256-256 0-105.946-64.361-196.862-156.122-235.78C437.853 45.89 512 142.287 512 256" data-original="#ebebeb"/><path fill="#ffd15b" d="M343.229 213.746H240.824l29.879-141.408c1.187-5.62-6.537-8.419-9.226-3.344l-108 203.849c-6.107 11.527 2.249 25.41 15.293 25.41h102.405l-29.879 141.408c-1.187 5.62 6.537 8.419 9.226 3.344l108-203.849c6.108-11.527-2.248-25.41-15.293-25.41" data-original="#ffd15b"/><path fill="#ffc344" d="m270.699 72.343-29.873 141.402H227.27c-4.161 0-7.266-3.83-6.406-7.901l21.148-100.105 19.469-36.744c2.687-5.078 10.413-2.276 9.218 3.348m87.827 166.815L250.52 443.004c-2.689 5.078-10.414 2.277-9.219-3.348l7.056-33.396 88.537-167.103c6.108-11.527-2.256-25.413-15.297-25.413h21.632c13.041.001 21.405 13.887 15.297 25.414" data-original="#ffc344"/><path fill="#e1d3ce" d="M94.263 400.067a7.5 7.5 0 0 1-4.842-13.231l323.481-273.134a7.5 7.5 0 0 1 9.677 11.461L99.098 398.297a7.47 7.47 0 0 1-4.835 1.77" data-original="#e1d3ce"/></svg>