<svg xmlns="http://www.w3.org/2000/svg" xml:space="preserve" width="512" height="512"><path fill="#e2e7f0" d="M104 0C86.328 0 72 14.328 72 32v448c0 17.672 14.328 32 32 32h304c17.672 0 32-14.328 32-32V128L312 0z" data-original="#e2e7f0"/><path fill="#9dacba" d="M344 128h96L312 0v96c0 17.672 14.328 32 32 32m-152 32h128c4.416 0 8 3.584 8 8s-3.584 8-8 8H192c-4.416 0-8-3.584-8-8s3.584-8 8-8m-48 168h224c4.416 0 8 3.584 8 8s-3.584 8-8 8H144c-4.416 0-8-3.584-8-8s3.584-8 8-8m0 96h128c4.416 0 8 3.584 8 8s-3.584 8-8 8H144c-4.416 0-8-3.584-8-8s3.584-8 8-8m0-48h224c4.416 0 8 3.584 8 8s-3.584 8-8 8H144c-4.416 0-8-3.584-8-8s3.584-8 8-8m0-96h224c4.416 0 8 3.584 8 8s-3.584 8-8 8H144c-4.416 0-8-3.584-8-8s3.584-8 8-8m0-48h224c4.416 0 8 3.584 8 8s-3.584 8-8 8H144c-4.416 0-8-3.584-8-8s3.584-8 8-8" data-original="#9dacba"/><path fill="#c9d5e3" d="m344 128 75.28 75.28a16.02 16.02 0 0 1 4.72 11.36V480c0 8.84-7.16 16-16 16H120c-8.84 0-16 7.16-16 16h304c17.672 0 32-14.328 32-32V128z" data-original="#c9d5e3"/></svg>