<svg xmlns="http://www.w3.org/2000/svg" xml:space="preserve" width="512" height="512" viewBox="0 0 32 32"><linearGradient id="a" x1="16" x2="16" y1="3.293" y2="19.2" gradientUnits="userSpaceOnUse"><stop offset="0" stop-color="#4793eb"/><stop offset=".635" stop-color="#2367ec"/><stop offset="1" stop-color="#294ccd"/></linearGradient><linearGradient id="b" x1="16" x2="16" y1="14.682" y2="28.745" gradientUnits="userSpaceOnUse"><stop offset="0" stop-color="#4aff9e"/><stop offset="1" stop-color="#35b97d"/></linearGradient><linearGradient id="c" x1="18.379" x2="22.621" y1="8.879" y2="13.121" gradientUnits="userSpaceOnUse"><stop offset="0" stop-color="#fed200"/><stop offset=".272" stop-color="#fdce01"/><stop offset=".528" stop-color="#fbc205"/><stop offset=".776" stop-color="#f8b00c"/><stop offset="1" stop-color="#f59815"/></linearGradient><path fill="url(#a)" d="M24 29H8c-2.757 0-5-2.243-5-5V8c0-2.757 2.243-5 5-5h16c2.757 0 5 2.243 5 5v16c0 2.757-2.243 5-5 5" data-original="url(#a)"/><path fill="url(#b)" d="M25.117 17.703a2.996 2.996 0 0 0-4.234 0l-2.18 2.18a.995.995 0 0 1-1.406 0l-4.18-4.18a2.996 2.996 0 0 0-4.234 0L3 21.586V24c0 2.757 2.243 5 5 5h16c2.757 0 5-2.243 5-5v-2.414z" data-original="url(#b)"/><circle cx="20.5" cy="11" r="3" fill="url(#c)" data-original="url(#c)"/></svg>