<svg xmlns="http://www.w3.org/2000/svg" version="1.1" xmlns:xlink="http://www.w3.org/1999/xlink" width="512"
    height="512" x="0" y="0" viewBox="0 0 60 60" style="enable-background:new 0 0 512 512" xml:space="preserve"
    class="">
    <g>
        <rect width="58" height="58" x="1" y="1" fill="#547580" rx="5" opacity="1" data-original="#547580" class="">
        </rect>
        <path fill="#4482c3" d="M59 6v7H1V6a5 5 0 0 1 5-5h48a5 5 0 0 1 5 5z" opacity="1" data-original="#4482c3"
            class=""></path>
        <circle cx="7" cy="7" r="2" fill="#f3d55b" opacity="1" data-original="#f3d55b"></circle>
        <circle cx="15" cy="7" r="2" fill="#ff5364" opacity="1" data-original="#ff5364"></circle>
        <circle cx="23" cy="7" r="2" fill="#65ddb9" opacity="1" data-original="#65ddb9"></circle>
        <path fill="#ffffff" d="M53 9a2 2 0 0 0 0-4H43a2 2 0 0 0 0 4z" opacity="1" data-original="#ffffff"></path>
        <g fill="#90bae1">
            <path
                d="M29 43H7a1 1 0 0 1 0-2h22a1 1 0 0 1 0 2zM13 48H7a1 1 0 0 1 0-2h6a1 1 0 0 1 0 2zM19 53H7a1 1 0 0 1 0-2h12a1 1 0 0 1 0 2zM40 43h-7a1 1 0 0 1 0-2h7a1 1 0 0 1 0 2zM53 43h-9a1 1 0 0 1 0-2h9a1 1 0 0 1 0 2zM20 48h-3a1 1 0 0 1 0-2h3a1 1 0 0 1 0 2zM36 48H24a1 1 0 0 1 0-2h12a1 1 0 0 1 0 2zM53 48H40a1 1 0 0 1 0-2h13a1 1 0 0 1 0 2zM42 53H23a1 1 0 0 1 0-2h19a1 1 0 0 1 0 2zM53 53h-7a1 1 0 0 1 0-2h7a1 1 0 0 1 0 2z"
                fill="#90bae1" opacity="1" data-original="#90bae1"></path>
        </g>
        <path fill="#f0c419"
            d="M8 34a1 1 0 0 1-.516-1.857L16.056 27l-8.571-5.143a1 1 0 0 1 1.03-1.714l10 6a1 1 0 0 1 0 1.714l-10 6A.994.994 0 0 1 8 34zM34 34H22a1 1 0 0 1 0-2h12a1 1 0 0 1 0 2z"
            opacity="1" data-original="#f0c419"></path>
    </g>
</svg>