<svg xmlns="http://www.w3.org/2000/svg" version="1.1" xmlns:xlink="http://www.w3.org/1999/xlink" width="512"
    height="512" x="0" y="0" viewBox="0 0 512 512" style="enable-background:new 0 0 512 512" xml:space="preserve"
    class="">
    <g>
        <linearGradient id="a" x1="18.949" x2="464.876" y1="465.876" y2="19.949"
            gradientTransform="matrix(1 0 0 -1 0 513)" gradientUnits="userSpaceOnUse">
            <stop offset="0" stop-color="#f6c012"></stop>
            <stop offset=".86" stop-color="orange"></stop>
        </linearGradient>
        <linearGradient id="b" x1="256" x2="256" y1="259.5" y2="389.5" gradientTransform="matrix(1 0 0 -1 0 513)"
            gradientUnits="userSpaceOnUse">
            <stop offset="0" stop-opacity=".25"></stop>
            <stop offset="1" stop-opacity="0"></stop>
        </linearGradient>
        <linearGradient id="c" x1="59.287" x2="452.713" y1="401.213" y2="7.787"
            gradientTransform="matrix(1 0 0 -1 0 513)" gradientUnits="userSpaceOnUse">
            <stop offset="0" stop-color="#ffe69d"></stop>
            <stop offset="1" stop-color="#ffc321"></stop>
        </linearGradient>
        <path fill="url(#a)"
            d="m233.1 93-43.9-32.7c-10.4-7.7-22.9-11.8-35.8-11.8H30c-16.6 0-30 13.4-30 30v355c0 16.6 13.4 30 30 30h452c16.6 0 30-13.4 30-30V134.9c0-16.6-13.4-30-30-30H268.9c-12.9-.1-25.4-4.2-35.8-11.9z"
            opacity="1" data-original="url(#a)" class=""></path>
        <path fill="url(#b)" d="M0 123.5h512v130H0z" opacity="1" data-original="url(#b)" class=""></path>
        <path fill="url(#c)"
            d="M30 153.5h452c16.6 0 30 13.4 30 30v250c0 16.6-13.4 30-30 30H30c-16.6 0-30-13.4-30-30v-250c0-16.6 13.4-30 30-30z"
            opacity="1" data-original="url(#c)" class=""></path>
    </g>
</svg>